<?xml version="1.0" standalone="no"?><!DOCTYPE svg PUBLIC "-//W3C//DTD SVG 1.1//EN" "http://www.w3.org/Graphics/SVG/1.1/DTD/svg11.dtd"><svg t="1550198051633" class="icon" style="" viewBox="0 0 1024 1024" version="1.1" xmlns="http://www.w3.org/2000/svg" p-id="2992" xmlns:xlink="http://www.w3.org/1999/xlink" width="48" height="48"><defs><style type="text/css"></style></defs><path d="M763.611429 601.234286c-32.987429 0-64.877714-8.557714-91.209143-24.064a174.811429 174.811429 0 0 1-22.893715 11.190857c-51.2 20.333714-113.810286 15.213714-158.939428-11.264a181.394286 181.394286 0 0 1-23.04 11.190857c-50.688 20.260571-113.590857 15.36-158.939429-11.410286a178.176 178.176 0 0 1-90.697143 23.552c-56.758857 0-109.348571-25.965714-137.142857-67.876571a114.102857 114.102857 0 0 1-3.072-121.636572l90.989715-155.940571c20.333714-34.450286 56.027429-58.733714 75.410285-70.070857 27.355429-15.798857 51.126857-19.382857 80.749715-20.041143 20.918857-0.512 41.984-0.658286 63.049142-0.658286l121.270858 0.658286 63.122285-0.073143 96.402286 0.073143c34.230857 0 69.632 13.238857 99.766857 37.229714 20.845714 16.749714 30.427429 36.790857 38.107429 52.955429 2.633143 5.558857 5.193143 11.117714 8.484571 16.457143l64.292572 103.058285c7.606857 12.288 15.286857 24.576 23.113142 36.717715 12.434286 19.090286 18.212571 40.813714 16.749715 62.756571 0.073143 48.054857-33.718857 92.891429-88.137143 114.541714a184.173714 184.173714 0 0 1-67.437714 12.653715zM672.402286 495.469714c8.777143 0 17.554286 3.145143 24.576 9.435429 16.018286 14.555429 40.886857 23.186286 66.633143 23.186286 14.043429 0 28.086857-2.633143 40.521142-7.606858 25.965714-10.386286 42.130286-29.110857 42.130286-49.005714a31.597714 31.597714 0 0 0-5.046857-20.48c-8.192-12.653714-16.091429-25.453714-23.917714-38.107428l-64.365715-103.131429a255.049143 255.049143 0 0 1-12.288-23.332571c-6.436571-13.531429-10.459429-21.430857-17.846857-27.355429-16.822857-13.458286-36.571429-21.211429-54.052571-21.211429l-96.475429-0.073142-63.122285 0.073142-121.270858-0.585142c-20.48 0-40.886857 0.146286-61.293714 0.658285-23.04 0.512-32.768 2.706286-45.714286 10.166857-22.162286 13.019429-40.594286 29.476571-49.152 43.885715L140.726857 448a40.228571 40.228571 0 0 0 1.024 44.178286c20.772571 31.451429 80.822857 42.642286 116.443429 28.013714 10.678857-4.315429 19.236571-9.362286 25.746285-15.286857a36.571429 36.571429 0 0 1 49.298286-0.219429c24.868571 22.601143 72.045714 29.696 107.154286 15.652572 10.093714-4.022857 18.651429-9.216 25.526857-15.433143a36.571429 36.571429 0 0 1 49.152-0.073143c24.868571 22.528 72.118857 29.696 107.227429 15.579429 10.020571-4.022857 18.651429-9.216 25.6-15.506286a36.425143 36.425143 0 0 1 24.502857-9.435429zM402.285714 914.285714h-66.340571c-95.890286 0-153.088-40.740571-153.088-108.982857V694.857143a36.571429 36.571429 0 0 1 73.142857 0v110.445714c0 32.329143 55.881143 35.84 79.945143 35.84H402.285714a36.571429 36.571429 0 0 1 0 73.142857zM695.076571 675.913143c43.52 0 86.893714-0.073143 130.340572 0.073143 16.822857 0 20.992 5.266286 16.310857 21.357714-11.702857 41.325714-23.552 82.870857-35.547429 124.050286-5.266286 18.432-14.701714 25.819429-33.865142 25.892571H628.004571c-26.112-0.146286-40.740571-11.117714-47.981714-36.278857-11.117714-38.4-22.089143-77.019429-32.914286-115.565714-3.949714-13.824 0.219429-19.456 14.628572-19.456 44.397714-0.146286 88.941714-0.073143 133.339428-0.073143zM568.832 650.020571c-18.578286 0-37.229714 0.292571-55.808 0-16.822857-0.292571-19.748571-4.169143-19.456-24.722285 0.219429-13.750857 4.900571-18.066286 20.041143-18.066286 36.790857-0.146286 73.654857 0 110.592-0.146286 7.533714 0 16.749714 0.146286 18.139428 8.630857 1.462857 9.654857 0 20.114286-2.633142 29.622858-0.731429 2.779429-9.874286 4.315429-15.067429 4.461714-18.578286 0.658286-37.229714 0.219429-55.808 0.219428zM635.538286 907.117714a37.522286 37.522286 0 0 1-37.156572 37.522286 37.522286 37.522286 0 0 1-37.083428-38.473143 37.156571 37.156571 0 0 1 74.24 0.950857zM723.968 906.020571a37.083429 37.083429 0 0 1 74.020571 2.56 37.229714 37.229714 0 0 1-38.912 35.401143 36.571429 36.571429 0 0 1-35.108571-37.961143z" fill="#8a8a8a" p-id="2993"></path></svg>